<?xml version="1.0" encoding="utf-8"?>
<!-- Generator: Adobe Illustrator 22.0.1, SVG Export Plug-In . SVG Version: 6.00 Build 0)  -->
<svg version="1.1" id="Слой_1" xmlns="http://www.w3.org/2000/svg" xmlns:xlink="http://www.w3.org/1999/xlink" x="0px" y="0px"
	 viewBox="0 0 811 562" style="enable-background:new 0 0 811 562;" xml:space="preserve">
<style type="text/css">
	.st0{fill:none;stroke:#000000;stroke-miterlimit:10;}
</style>
<polygon class="st0" points="257.5,342.2 188.5,375.3 154.2,302.3 220.7,272.2 "/>
<polygon class="st0" points="299.3,237.8 268.8,251.3 248,216.3 278.7,202.8 "/>
<polygon class="st0" points="324.8,226.3 299.3,237.8 278.7,202.8 304.2,191 "/>
<polygon class="st0" points="349.3,214 324.8,226.3 304.2,191 327.3,180.5 "/>
<polygon class="st0" points="324,310.3 257.5,342.2 229,287.5 293.7,256.5 "/>
<polygon class="st0" points="388.3,278.2 324,310.3 293.7,256.5 357.5,226.8 "/>
<polygon class="st0" points="442.8,252.5 388.3,278.2 357.5,226.8 409.5,202.5 "/>
<polygon class="st0" points="387.3,196.8 349.3,214 327.3,180.5 365.2,164.2 "/>
<polygon class="st0" points="387.3,196.8 414.2,184.3 391.5,151.8 365.2,164.2 "/>
<polygon class="st0" points="487.5,151.3 460.7,162.8 436.8,130.2 462.5,119.5 "/>
<polygon class="st0" points="510,140.7 487.5,151.3 462.5,119.5 485.3,109 "/>
<polygon class="st0" points="530.8,130.5 510,140.7 485.3,109 506.5,100 "/>
<polygon class="st0" points="556.3,119.3 530.8,130.5 506.5,100 531,89 "/>
<polygon class="st0" points="502.7,222.3 442.8,252.5 409.5,202.5 469.2,174.5 "/>
<polygon class="st0" points="553.5,198.7 502.7,222.3 469.2,174.5 518.3,151.8 "/>
<polygon class="st0" points="610,170.3 553.5,198.7 518.3,151.8 574,125.7 "/>
<polygon class="st0" points="657.3,147.3 610,170.3 574,125.7 620.7,104.3 "/>
<polygon class="st0" points="711.8,120.8 657.3,147.3 620.7,104.3 674,79 "/>
<polygon class="st0" points="438,173.2 414.2,184.3 391.5,151.8 414.7,140.8 "/>
<polygon class="st0" points="460.7,162.8 438,173.2 414.7,140.8 436.8,130.2 "/>
<polygon class="st0" points="577.8,109 556.3,119.3 531,89 552.2,78.7 "/>
<polygon class="st0" points="599,98.3 577.8,109 552.2,78.7 573.7,69.3 "/>
</svg>
