<?xml version="1.0" encoding="utf-8"?>
<!-- Generator: Adobe Illustrator 22.0.1, SVG Export Plug-In . SVG Version: 6.00 Build 0)  -->
<svg version="1.1" id="Слой_1" xmlns="http://www.w3.org/2000/svg" xmlns:xlink="http://www.w3.org/1999/xlink" x="0px" y="0px"
	 viewBox="0 0 1920.1 1080" style="enable-background:new 0 0 1920.1 1080;" xml:space="preserve">
<style type="text/css">
	.st0{fill:none;}
</style>
<g>
	<rect x="-3880.1" class="st0" width="1920" height="1080"/>
	<polygon class="st0" points="-2042,623.9 -3822.2,623.9 -3839.5,569.3 -2024.7,569.3 	"/>
	<polygon class="st0" points="-2062,694.5 -3798.2,697.1 -3815.5,642.5 -2047.3,642.5 	"/>
</g>
<g>
	<polygon class="st0" points="-101.5,376.3 -1729,449.8 -1713,519.8 -119,442.8 	"/>
	<polygon class="st0" points="-119,442.8 -1713,520.8 -1700,582.8 -136,506.8 	"/>
	<polygon class="st0" points="-136,506.8 -1700,582.8 -1687,644.8 -149,561.8 	"/>
	<polygon class="st0" points="-149,561.8 -1687,644.8 -1677,700.8 -160,613.8 	"/>
	<rect x="-1940.1" class="st0" width="1920" height="1084"/>
</g>
<polygon class="st0" points="1838.6,376.3 211.1,449.8 227.1,519.8 1821.1,442.8 "/>
<polygon class="st0" points="1821.1,442.8 227.1,520.8 240.1,582.8 1804.1,506.8 "/>
<polygon class="st0" points="1804.1,506.8 240.1,582.8 253.1,644.8 1791.1,561.8 "/>
<polygon class="st0" points="1791.1,561.8 253.1,644.8 263.1,700.8 1780.1,613.8 "/>
<rect class="st0" width="1920" height="1084"/>
<polygon class="st0" points="386.5,444.3 1805.5,444.3 1821.5,379.3 379.5,390.3 345.5,439.3 60.5,437.3 77.5,489.3 356.5,487.3 "/>
<polygon class="st0" points="401,503.8 1786,512.8 1805,444.8 387,443.8 357,486.8 78,488.8 96,552.8 369,543.8 "/>
<polygon class="st0" points="412,565.8 1767,577.8 1786,512.8 401,503.8 369,543.8 96,552.8 111,608.8 380,606.8 "/>
</svg>
