<?xml version="1.0" encoding="utf-8"?>
<!-- Generator: Adobe Illustrator 22.0.1, SVG Export Plug-In . SVG Version: 6.00 Build 0)  -->
<svg version="1.1" id="Слой_1" xmlns="http://www.w3.org/2000/svg" xmlns:xlink="http://www.w3.org/1999/xlink" x="0px" y="0px"
	 viewBox="0 0 1920.1 1080" style="enable-background:new 0 0 1920.1 1080;" xml:space="preserve">
<style type="text/css">
	.st0{fill:none;stroke:#000000;stroke-miterlimit:10;}
</style>
<g>
	<rect x="-1940.1" y="-1100" class="st0" width="1920" height="1080"/>
	<polygon class="st0" points="-101.9,-476.1 -1882.1,-476.1 -1899.4,-530.7 -84.6,-530.7 	"/>
	<polygon class="st0" points="-121.9,-405.5 -1858.2,-402.9 -1875.5,-457.5 -107.3,-457.5 	"/>
</g>
<g>
	<polygon class="st0" points="-101.5,376.3 -1729,449.8 -1713,519.8 -119,442.8 	"/>
	<polygon class="st0" points="-119,442.8 -1713,520.8 -1700,582.8 -136,506.8 	"/>
	<polygon class="st0" points="-136,506.8 -1700,582.8 -1687,644.8 -149,561.8 	"/>
	<polygon class="st0" points="-149,561.8 -1687,644.8 -1677,700.8 -160,613.8 	"/>
	<rect x="-1940.1" class="st0" width="1920" height="1084"/>
</g>
<rect y="-1100" class="st0" width="1920" height="1084"/>
<polygon class="st0" points="386.5,-655.7 1805.5,-655.7 1821.5,-720.7 379.5,-709.7 345.5,-660.7 60.5,-662.7 77.5,-610.7 
	356.5,-612.7 "/>
<polygon class="st0" points="401,-596.2 1786,-587.2 1805,-655.2 387,-656.2 357,-613.2 78,-611.2 96,-547.2 369,-556.2 "/>
<polygon class="st0" points="412,-534.2 1767,-522.2 1786,-587.2 401,-596.2 369,-556.2 96,-547.2 111,-491.2 380,-493.2 "/>
<rect class="st0" width="1920" height="1084"/>
<rect x="1940.1" y="-1100" class="st0" width="1920" height="1084"/>
<g>
	<polygon class="st0" points="1790.9,609 122.9,609 107.9,529 1807.9,521 	"/>
	<polygon class="st0" points="1775.4,684.5 141.4,691.5 123.4,608.5 1790.9,608.5 	"/>
	<polygon class="st0" points="1761.4,756.5 158.4,768.5 142.4,691.5 1775.4,684.5 	"/>
</g>
<g>
	<polygon class="st0" points="2136.4,-521.5 2831.4,-416.5 2949.4,-559.5 3577.4,-483.5 3597.4,-614.5 2949.4,-680.5 2824.4,-527.5 
		2115.4,-630.5 	"/>
	<polygon class="st0" points="2160.4,-376.5 2837.4,-258.5 2945.4,-420.5 3551.4,-331.5 3572.4,-460.5 2946.4,-535.5 2836.4,-392.5 
		2139.4,-498.5 	"/>
</g>
</svg>
