<svg xmlns="http://www.w3.org/2000/svg" xmlns:xlink="http://www.w3.org/1999/xlink" width="112" height="112" viewBox="0 0 112 112"><defs><path id="a" d="M1099.5 527a54.5 54.5 0 1 1 0 109 54.5 54.5 0 0 1 0-109z"/><path id="b" d="M1121.43 580.24l-33.04-18.06c-.38-.21-.7-.24-.98-.07-.27.16-.41.45-.41.88V599c0 .43.14.72.4.88.28.17.61.14 1-.07l33.03-18.06c.38-.2.57-.46.57-.75 0-.3-.19-.55-.57-.76z"/></defs><g transform="translate(-1043 -525)"><use fill="#00c1ff" xlink:href="#a"/></g><g transform="translate(-1043 -525)"><use fill="#fff" xlink:href="#b"/></g></svg>