<svg xmlns="http://www.w3.org/2000/svg" xmlns:xlink="http://www.w3.org/1999/xlink" width="26" height="26" viewBox="0 0 26 26"><defs><path id="a" d="M1022 2410.5c0 6.34-5.16 11.5-11.5 11.5s-11.5-5.16-11.5-11.5 5.16-11.5 11.5-11.5 11.5 5.16 11.5 11.5zm-1.5 0a10 10 0 0 0-20 0 10 10 0 0 0 20 0zm-4.68 0c0 .42-.33.75-.75.75h-3.82v3.82a.75.75 0 0 1-1.5 0v-3.82h-3.82a.75.75 0 1 1 0-1.5h3.82v-3.82a.75.75 0 1 1 1.5 0v3.82h3.82c.42 0 .75.33.75.75z"/></defs><g transform="translate(-997 -2397)"><use fill="#fff" xlink:href="#a"/></g></svg>