<?xml version="1.0" encoding="utf-8"?>
<!-- Generator: Adobe Illustrator 22.0.1, SVG Export Plug-In . SVG Version: 6.00 Build 0)  -->
<svg version="1.1" id="Слой_1" xmlns="http://www.w3.org/2000/svg" xmlns:xlink="http://www.w3.org/1999/xlink" x="0px" y="0px"
	 viewBox="0 0 700 811.3" style="enable-background:new 0 0 700 811.3;" xml:space="preserve">
<style type="text/css">
	.st0{fill:#DFE2EB;}
</style>
<g>
	<g>
		<g>
			<polygon class="st0" points="350.6,174.9 230.1,130.1 350.6,0.1 			"/>
			<polygon class="st0" points="471.1,129.8 350.6,174.6 350.6,348.7 375.5,348.7 			"/>
			<polygon class="st0" points="230.1,129.8 350.6,174.6 350.6,348.7 325.7,348.7 			"/>
			<polygon class="st0" points="350.6,174.9 471.1,130.1 350.6,0.1 			"/>
		</g>
		<g>
			<polygon class="st0" points="350.6,636.4 230.1,681.2 350.6,811.3 			"/>
			<polygon class="st0" points="471.1,681.5 350.6,636.7 350.6,462.7 375.5,462.7 			"/>
			<polygon class="st0" points="230.1,681.5 350.6,636.7 350.6,462.7 325.7,462.7 			"/>
			<polygon class="st0" points="350.6,636.4 471.1,681.2 350.6,811.3 			"/>
		</g>
		<g>
			<polygon class="st0" points="547.4,288.6 526.9,161.7 699.5,202.3 			"/>
			<polygon class="st0" points="646,371.2 547.6,288.4 396.2,374.3 408.5,396 			"/>
			<polygon class="st0" points="527.2,161.5 547.6,288.4 396.2,374.3 383.9,352.6 			"/>
			<polygon class="st0" points="547.4,288.6 645.8,371.3 699.5,202.3 			"/>
		</g>
		<g>
			<polygon class="st0" points="152.1,288.6 172.6,161.7 0,202.3 			"/>
			<polygon class="st0" points="53.5,371.2 151.9,288.4 303.3,374.3 291,396 			"/>
			<polygon class="st0" points="172.3,161.5 151.9,288.4 303.3,374.3 315.6,352.6 			"/>
			<polygon class="st0" points="152.1,288.6 53.7,371.3 0,202.3 			"/>
		</g>
		<g>
			<polygon class="st0" points="152.1,518.6 172.6,645.5 0,604.8 			"/>
			<polygon class="st0" points="53.5,436 151.9,518.7 303.3,432.9 291,411.2 			"/>
			<polygon class="st0" points="172.3,645.6 151.9,518.7 303.3,432.9 315.6,454.6 			"/>
			<polygon class="st0" points="152.1,518.6 53.7,435.9 0,604.8 			"/>
		</g>
		<g>
			<polygon class="st0" points="547.9,518.6 527.4,645.5 700,604.8 			"/>
			<polygon class="st0" points="646.5,436 548.1,518.7 396.7,432.9 409,411.2 			"/>
			<polygon class="st0" points="527.7,645.6 548.1,518.7 396.7,432.9 384.4,454.6 			"/>
			<polygon class="st0" points="547.9,518.6 646.3,435.9 700,604.8 			"/>
		</g>
	</g>
</g>
</svg>
