<?xml version="1.0" encoding="utf-8"?><svg width="2616" height="84" viewBox="0 0 2616 84" xmlns="http://www.w3.org/2000/svg" xmlns:xlink="http://www.w3.org/1999/xlink"><svg id="F" viewBox="-10 -10 38 45" width="38" height="45" xmlns="http://www.w3.org/2000/svg"><style>.aast0{fill-rule:evenodd;clip-rule:evenodd}</style><path class="aast0" d="M14.9 3.6l-.7 2.9c0 .3-.3.6-.7.6H8.3c-.6 0-1.1.4-1.1 1v.6c0 .6.5 1.1 1.1 1.1h4.4c.4 0 .7.3.7.8-.1.4-.6 2.7-.7 2.9 0 .2-.3.6-.6.6-.4-.1-3.6-.1-3.6 0-.8-.1-1 0-1.5.5-.4.6-4.3 5.5-4.4 5.5V3.4c0-.3.3-.6.7-.6h10.9c.5 0 .8.3.7.8M2.4 0C.5 0 0 1.4 0 2.3v21.1c0 1.1.5 1.4.8 1.5.3.2 1.1.3 1.6-.3 0 .1 6.4-7.3 6.5-7.5.1-.1.2-.1.2-.2.1.1 2.7.1 4.1 0 1.7.1 2.1-1.1 2.3-1.8.1-.6 1.9-9.2 2.4-11.9.4-2.1-.1-3.2-2.1-3.2H2.4z"/></svg><svg viewBox="-10 -10 45 45" width="45" height="45" id="Insta" x="38" xmlns="http://www.w3.org/2000/svg"><path d="M19 3c1.7 0 3 1.3 3 3v13c0 1.7-1.3 3-3 3H6c-1.7 0-3-1.3-3-3V6c0-1.7 1.3-3 3-3h13m0-3H6C2.7 0 0 2.7 0 6v13c0 3.3 2.7 6 6 6h13c3.3 0 6-2.7 6-6V6c0-3.3-2.7-6-6-6z"/><path d="M19.2 4.3c-.8 0-1.5.7-1.5 1.5s.7 1.5 1.5 1.5 1.5-.7 1.5-1.5-.7-1.5-1.5-1.5zM12.5 6.1C9 6.1 6.1 9 6.1 12.5s2.9 6.4 6.4 6.4 6.4-2.9 6.4-6.4-2.9-6.4-6.4-6.4zm0 10.6c-2.3 0-4.2-1.9-4.2-4.2s1.9-4.2 4.2-4.2 4.2 1.9 4.2 4.2-1.9 4.2-4.2 4.2z"/></svg><svg id="PDF" viewBox="-10 -10 37.8 34" width="37.8" height="34" x="83" xmlns="http://www.w3.org/2000/svg"><style>.acst0{fill:none;stroke:#000;stroke-width:2;stroke-miterlimit:10}</style><path class="acst0" d="M16.8 5v6c0 1.1-.9 2-2 2h-5c-1.1 0-2-.9-2-2V3c0-1.1.9-2 2-2h3"/><path d="M17.8 5h-3c-1.1 0-2-.9-2-2V0l5 5zM0 12.4c0-.4.1-.7.4-1 .3-.3.6-.4 1-.4s.7.1 1 .4c.3.3.4.6.4 1v.7h1.4v.8H0v-1.5zm2 0c0-.4-.3-.6-.6-.6-.4 0-.6.3-.6.6v.7H2v-.7zM0 6.9c0-.6.2-1.1.6-1.4.4-.4.9-.6 1.5-.6s1.1.2 1.5.6c.4.4.6.9.6 1.4v1.7H0V6.9zm3.4 0c0-.4-.1-.7-.4-.9-.2-.2-.5-.3-.9-.3s-.7.1-.9.4c-.3.2-.4.5-.4.8v.8h2.6v-.8zM.8 0v1.7h1V.1h.8v1.6h1.6v.8H0V0z"/></svg><svg viewBox="-10 -10 44 44" width="44" height="44" id="Phone" x="121" xmlns="http://www.w3.org/2000/svg"><path d="M12 22.5C6.2 22.5 1.5 17.8 1.5 12S6.2 1.5 12 1.5 22.5 6.2 22.5 12 17.8 22.5 12 22.5zm0-19c-4.7 0-8.5 3.8-8.5 8.5s3.8 8.5 8.5 8.5 8.5-3.8 8.5-8.5-3.8-8.5-8.5-8.5z"/><path d="M16.3 14.6l-1.4-1.4c-.3-.3-.7-.3-1 0l-.7.7s-.1 0-.1-.1c-.4-.2-1.1-.6-1.7-1.2-.6-.6-1-1.2-1.2-1.7l-.1-.1.5-.5.2-.2c.3-.3.3-.7 0-1L9.4 7.8c-.3-.3-.7-.3-1 0l-.4.4c-.2.2-.3.4-.3.6-.1.2-.2.3-.2.5-.2 1.5.5 2.9 2.4 4.7 2.6 2.6 4.7 2.4 4.8 2.4.2 0 .4-.1.6-.1l.6-.3.4-.4c.3-.3.3-.8 0-1z"/></svg><svg id="Search" viewBox="-10 -10 44 44" width="44" height="44" x="165" xmlns="http://www.w3.org/2000/svg"><style>.aest0{fill:#fff}</style><path class="aest0" d="M21.2 19.8l-4.7-5c1.2-1.5 1.9-3.3 1.9-5.2 0-4.5-3.6-8.1-8-8.1s-8 3.6-8 8.1 3.6 8.1 8 8.1c1.6 0 3.2-.5 4.6-1.5l4.7 5c.2.2.5.3.7.3.3 0 .5-.1.7-.3.5-.3.5-1 .1-1.4zM10.5 3.7c3.2 0 5.9 2.7 5.9 6s-2.6 6-5.9 6-5.9-2.7-5.9-6c0-3.4 2.6-6 5.9-6z"/></svg><svg viewBox="-10 -10 45 45" width="45" height="45" id="VK" x="209" xmlns="http://www.w3.org/2000/svg"><path d="M19 3c1.7 0 3 1.3 3 3v13c0 1.7-1.3 3-3 3H6c-1.7 0-3-1.3-3-3V6c0-1.7 1.3-3 3-3h13m0-3H6C2.7 0 0 2.7 0 6v13c0 3.3 2.7 6 6 6h13c3.3 0 6-2.7 6-6V6c0-3.3-2.7-6-6-6z"/><path d="M19 17h-1.5c-.5 0-.5 0-1-.5-.6-.6-1.5-1.5-2-1.5s-1 .5-1 1c0 .3 0 1-.5 1h-.5c-1 0-2.1-.1-3.9-2C6.7 13.1 6 11.5 5 9c-.1-.2 0-.5.5-.5H7c.5 0 .6-.1 1 .5 1 1.5 2 3.5 2.5 3.5s.5-2 .5-2v-1c0-.7-.9-.5-1-.5-.1 0 .5-.5.5-.5S11.2 8 12 8h1.5c.7.2.5 1.3.5 3 0 .5 0 1.5.5 1.5s.5-.5 1-1.5c.3-.6.5-1 1.5-2.5.3-.5 2.9 0 3 .3.1.3-.6 1.4-1.5 2.7-1.5 2-1 1.5 0 2.5 1.2 1.2 1.5 1.7 1.5 2 0 1-1 1-1 1z"/></svg><svg id="area" viewBox="-10 -10 52 52" width="52" height="52" x="254" xmlns="http://www.w3.org/2000/svg"><style>.agst0{fill:#00c1ff}</style><path class="agst0" d="M30 30h-7.8v-3H9.8v3H2v-7.8h3V9.8H2V2h7.8v3h12.3V2H30v7.8h-3v12.3h3V30zm-6-1.8h4.2V24H24v4.2zm-20.2 0H8V24H3.8v4.2zm6-3h12.3v-3h3V9.8h-3v-3H9.8v3h-3v12.3h3v3.1zM3.8 8H8V3.8H3.8V8zM24 8h4.2V3.8H24V8z"/></svg><svg id="bill" viewBox="-10 -10 84 84" width="84" height="84" x="306" xmlns="http://www.w3.org/2000/svg"><style>.ahst0{fill:#00c1ff}</style><path class="ahst0" d="M49.6 29.7H38.4c-.5 0-.9.4-.9.9s.4.9.9.9h11.3c.5 0 .9-.4.9-.9s-.4-.9-1-.9zm0 5.5H38.4c-.5 0-.9.4-.9.9s.4.9.9.9h11.3c.5 0 .9-.4.9-.9s-.4-.9-1-.9zm0 5.5H38.4c-.5 0-.9.4-.9.9s.4.9.9.9h11.3c.5 0 .9-.4.9-.9s-.4-.9-1-.9zm-23.7-9.2h5.9c.5 0 .9-.4.9-.9s-.4-.9-.9-.9h-5.9c-.5 0-.9.4-.9.9s.4.9.9.9zm0 5.5h5.9c.5 0 .9-.4.9-.9s-.4-.9-.9-.9h-5.9c-.5 0-.9.4-.9.9s.4.9.9.9zm0 5.5h5.9c.5 0 .9-.4.9-.9s-.4-.9-.9-.9h-5.9c-.5 0-.9.4-.9.9s.4.9.9.9zm0 5.6h5.9c.5 0 .9-.4.9-.9s-.4-.9-.9-.9h-5.9c-.5 0-.9.4-.9.9s.4.9.9.9zm23.7-24.5H25.9c-.5 0-.9.4-.9.9s.4.9.9.9h23.7c.5 0 .9-.4.9-.9.1-.5-.3-.9-.9-.9zM25.9 53.8h23.7c.5 0 .9-.4.9-.9s-.3-.9-.9-.9H25.9c-.5 0-.9.4-.9.9s.4.9.9.9zm18.8-38c0-2.7-3-4.9-6.7-4.9s-6.7 2.1-6.7 4.9c0 2.7 3 4.9 6.7 4.9 3.8 0 6.7-2.1 6.7-4.9zm-11.6 0c0-1.6 2.3-3 4.9-3 2.7 0 4.9 1.4 4.9 3s-2.3 3-4.9 3c-2.7.1-4.9-1.3-4.9-3zm23.5 33.1c.5 0 .9-.4.9-.9V11.9c0-3.5-2.9-6.4-6.4-6.4H12.9c-3.6 0-6.4 2.9-6.4 6.4V14c0 .5.4.9.9.9s.9-.4.9-.9v-2.1c0-2.5 2.1-4.5 4.6-4.5 2.5 0 4.6 2 4.6 4.5v19.8c-.1 0-.1.1-.2.2-.3.4-.7.6-1.1.6-.4 0-.7-.1-1-.4-.2-.2-.4-.3-.6-.3-.2 0-.5.1-.6.3-.3.3-.6.4-1 .4-.3 0-.5-.1-.7-.2v-5c0-.5-.4-.9-.9-.9s-.9.4-.9.9v5c-.2.1-.5.2-.7.2-.8 0-1.4-.6-1.4-1.4V18.2c0-.5-.4-.9-.9-.9s-.9.4-.9.9V31c0 1.8 1.4 3.2 3.2 3.2.6 0 1.2-.2 1.6-.5.5.3 1.1.5 1.6.5.6 0 1.2-.2 1.6-.5.5.3 1.1.5 1.6.5.4 0 .9-.1 1.3-.3v21.8c0 1.5 1.3 2.8 2.8 2.8h34.3c1.5 0 2.8-1.2 2.8-2.8v-4.1c0-.5-.4-.9-.9-.9s-.9.4-.9.9v4.1c0 .5-.4.9-1 .9H20.4c-.5 0-1-.4-1-.9V11.9c0-1.8-.7-3.4-1.9-4.5h33.6c2.5 0 4.6 2 4.6 4.5V48c0 .5.4.9.9.9z"/></svg><svg id="brush" viewBox="-10 -10 60 60" width="60" height="60" x="390" xmlns="http://www.w3.org/2000/svg"><style>.aist0{fill:#00c1ff}</style><path class="aist0" d="M17.8 21.7c.6.2 1.4.3 2.2.3.8 0 1.6-.1 2.2-.3.1 0 .2-.2.2-.3-.3-.8-.5-1.4-.7-1.8 0-.1-.1-.2-.3-.2-.5.1-1 .1-1.5.1s-1 0-1.5-.1c-.1 0-.2 0-.3.2l-.7 1.8c.2.1.2.3.4.3zm-.7 1.8c.8.3 1.7.5 2.9.5 1.1 0 2.1-.2 2.9-.5.1 0 .2-.2.1-.3l-.1-.4c0-.1-.2-.2-.3-.2-.8.3-1.7.4-2.6.4-.9 0-1.8-.1-2.6-.3-.1 0-.3 0-.3.2l-.1.3c-.1.1 0 .3.1.3zm2.1-5.1c.3 0 .5.1.8.1.3 0 .6 0 .8-.1.1 0 .2-.1.2-.2V6.1c0-.6-.5-1.1-1.1-1.1-.5 0-.9.4-.9 1v12.2c0 .1.1.2.2.2zm7.3 14.4s-1.6-4.4-2.9-8.2c0-.1-.2-.2-.3-.1-.9.3-2 .5-3.2.5-1.2 0-2.3-.2-3.2-.5-.1-.1-.3 0-.3.1l-2.9 8.2v.2c0 1 1.6 1.5 3 1.5.2 0 .4-.1.4-.3l.1-.1c.1.6 1.1.9 2 .9.2 0 .3-.1.4-.2l.6-.9.6.9c.1.1.2.2.4.2.9 0 1.9-.2 2-.9l.1.1c.1.2.3.3.4.3 1.4 0 3-.5 3-1.5-.2 0-.2-.1-.2-.2z"/></svg><svg id="bus" viewBox="-10 -10 60 60" width="60" height="60" x="450" xmlns="http://www.w3.org/2000/svg"><style>.ajst0{fill:#00c1ff}</style><path class="ajst0" d="M29.9 13.1H29v-1.5c0-1.7-1.3-3-3-3H14c-1.7 0-3 1.4-3 3v1.5h-.9c-.3 0-.6.3-.6.6v3.5c0 .3.3.6.6.6h.9v7.5c-.3.3-.5.7-.5 1.2v1.2c0 .9.7 1.6 1.6 1.6h.2V31c0 .3.2.5.5.5H15c.3 0 .5-.2.5-.5v-1.7h9.1V31c0 .3.2.5.5.5h2.2c.3 0 .5-.2.5-.5v-1.7h.2c.9 0 1.6-.7 1.6-1.6v-1.2c0-.5-.2-.9-.5-1.2v-7.5h.9c.3 0 .6-.3.6-.6v-3.5c-.1-.4-.4-.6-.7-.6zm-2.7.2v7.4h-6.4v-7.4h6.4zm-10.4-3.2h6.3c.4 0 .8.4.8.8s-.4.8-.8.8h-6.3c-.4 0-.8-.4-.8-.8 0-.5.4-.8.8-.8zm-4 3.2h6.4v7.4h-6.4v-7.4zm2.9 10.8c0 .4-.4.8-.8.8h-1.3c-.4 0-.8-.4-.8-.8v-.9c0-.4.4-.8.8-.8h1.3c.4 0 .8.4.8.8v.9zm8.6 0v-.9c0-.4.4-.8.8-.8h1.3c.4 0 .8.4.8.8v.9c0 .4-.4.8-.8.8h-1.3c-.4 0-.8-.4-.8-.8z"/></svg><svg id="camera" viewBox="-10 -10 84 84" width="84" height="84" x="510" xmlns="http://www.w3.org/2000/svg"><style>.akst0{fill:#00c1ff}</style><path class="akst0" d="M61.7 9.8c-.1-.5-.5-.8-1-.8H20.9c-4.1.7-6.8 5.8-6.8 13 0 6.7 2.3 11.6 5.9 12.8V41h-9.9v-3.9c0-1.7-1.4-3.1-3.1-3.1H5.3c-1.7 0-3.1 1.4-3.1 3.1v14.8c0 1.7 1.4 3.1 3.1 3.1h1.8c1.7 0 3.1-1.4 3.1-3.1V49h10.1c.4 1.2 1.5 2 2.8 2H25c1.7 0 3-1.4 3-3V35h20.8c3.9 0 6.9-5.7 6.9-13 0-1.8-.2-3.5-.5-5.1 2.4-.2 4.1-1 5.3-2.4 1.7-2 1.3-4.6 1.2-4.7zM8.1 51.9c0 .6-.5 1.1-1.1 1.1H5.3c-.6 0-1.1-.5-1.1-1.1V37.1c0-.6.5-1.1 1.1-1.1h1.8c.6 0 1.1.5 1.1 1.1v14.8zm13-40.9H56c-1.6.8-3.3 1.8-4.8 2.9-.1.1-.2.1-.3.2-.2.1-.4.3-.6.4l-.6.6-.2.2c-.1.1-.2.2-.3.4h-.1l-.1.1-.1.1-.1.1c-.1.1-.1.2-.2.3-.1.2-.2.3-.3.5h-7.4c-.3 0-.5.1-.7.3L36.5 21H16.2c.2-6.3 2.6-9.6 4.9-10zm28.7 9.7c0 2.1-.6 3.5-1 4.1-.4-.6-1-2-1-4.1 0-.6 0-1.1.1-1.7h.9c.1 0 .3 0 .4-.1h.1c.1-.1.2-.1.3-.2.2.5.2 1.2.2 2zM20.1 47h-9.9v-4h9.9v4zm5.9 1c0 .6-.5 1-1 1h-1.9c-.6 0-1-.5-1-1V35h4v13zm-4.9-15c-2.4-.4-4.8-3.7-5-10h20.8c.3 0 .5-.1.7-.3l3.7-3.7h.6v3c0 .5 0 1 .1 1.5v.5c0 .4.1.7.1 1.1 0 .2 0 .3.1.5.1.4.1.8.2 1.1 0 .1 0 .2.1.3.1.5.2.9.4 1.3 0 .1.1.2.1.3l.3.9c0 .1.1.3.2.4.1.3.2.6.4.8 0 .1.1.2.1.3.2.4.4.7.6 1l.1.1c.2.3.4.5.5.7l.1.1H21.1zm27.8 0c-2.3 0-5-4.8-5-11 0-1 .1-2 .2-3H46c-.1.5-.1 1.1-.1 1.7 0 3.4 1.4 6.3 3 6.3s3-3 3-6.3c0-1.8-.4-3.1-.7-4 .4-.4 1-.9 1.6-1.3h.1c.7 1.9 1.1 4.2 1.1 6.7-.2 6.4-2.8 10.9-5.1 10.9zM59 13.3c-.8 1-2.3 1.6-4.3 1.7-.1-.3-.2-.5-.3-.8 1.8-1.1 3.8-2.1 5.3-2.7 0 .6-.3 1.2-.7 1.8zM30 28c-.5 0-1 .4-1 1s.4 1 1 1c.5 0 1-.4 1-1s-.5-1-1-1zm4 0c-.5 0-1 .4-1 1s.4 1 1 1c.5 0 1-.4 1-1s-.5-1-1-1zm3.9 0c-.5 0-1 .4-1 1s.4 1 1 1c.5 0 1-.4 1-1s-.4-1-1-1z"/></svg><svg id="choice" viewBox="-10 -10 43 34" width="43" height="34" x="594" xmlns="http://www.w3.org/2000/svg"><style>.alst0{fill:#fff}</style><path class="alst0" d="M22 3H1c-.6 0-1-.4-1-1s.4-1 1-1h21c.6 0 1 .4 1 1s-.4 1-1 1M22 8H1c-.6 0-1-.4-1-1s.4-1 1-1h21c.6 0 1 .4 1 1s-.4 1-1 1M22 13H1c-.6 0-1-.4-1-1s.4-1 1-1h21c.6 0 1 .4 1 1s-.4 1-1 1"/><path class="alst0" d="M20 2c0 1.1-.9 2-2 2s-2-.9-2-2 .9-2 2-2 2 .9 2 2M7 7c0 1.1-.9 2-2 2s-2-.9-2-2 .9-2 2-2 2 .9 2 2M17 12c0 1.1-.9 2-2 2s-2-.9-2-2 .9-2 2-2 2 .9 2 2"/></svg><svg id="cleaning" viewBox="-10 -10 84 84" width="84" height="84" x="637" xmlns="http://www.w3.org/2000/svg"><style>.amst0{fill:#00c1ff}</style><path class="amst0" d="M47.4 9.8l-1.2-1.5c-.9-1.2-2.4-1.8-3.9-1.8H16.5c-.5 0-1 .4-1 1v6.9c0 .5.4 1 1 1h3.8l3.6 1.2c-.5 2.2-1.4 4.2-2.7 6.1l-.7 1c-.2.3-.2.7 0 1 .2.3.5.5.9.5h4c.3 0 .6-.2.8-.4l.6-.9c.8-1.2 1.4-2.4 2-3.7l.5.5V24l-.7 1.4c-.7 1.5-1.7 2.8-2.9 4-2.8 2.8-4.4 6.5-4.4 10.4v14.9c0 1.6 1.3 2.9 3 2.9h17.8c1.6 0 3-1.3 3-2.9V20.5l2.7-5.4c1-1.7.8-3.8-.4-5.3zm-27.9 3.6h-2V8.5h2v4.9zm5.7 9.3l-.3.5h-1.6c1.2-1.9 2-3.9 2.5-6l1.4 1.4c-.4 1.4-1.1 2.8-2 4.1zm18.1 4.4h-3c-.5 0-1 .4-1 1 0 .5.4 1 1 1h3v25.5c0 .5-.4 1-1 1H24.4c-.5 0-1-.4-1-1v-1h5c.5 0 1-.4 1-1 0-.5-.4-1-1-1h-5v-12c0-3.4 1.3-6.6 3.8-9 1.3-1.3 2.4-2.8 3.3-4.5l.5-1h12.3v2zm0-3.9H31.4v-2h11.9v2zm2.9-9l-2.6 5.1H30.8l-1.6-1.6-2-2c-.1-.1-.2-.2-.4-.2l-1.3-.4-4-1.3V8.5h20.9c.9 0 1.7.4 2.3 1.1l1.2 1.5c.7.8.8 2.1.3 3.1zm-9.8 14.3c0 .1.1.1.1.2s.1.1.1.1.1.1.2.1.1.1.2.1.1 0 .2.1h.4c.1 0 .1 0 .2-.1.1 0 .1-.1.2-.1s.1-.1.2-.1l.1-.1c0-.1.1-.1.1-.2s0-.1.1-.2v-.2-.2c0-.1 0-.1-.1-.2 0-.1-.1-.1-.1-.2s-.1-.1-.1-.1-.1-.1-.2-.1-.1-.1-.2-.1-.1 0-.2-.1h-.4c-.1 0-.1 0-.2.1-.1 0-.1.1-.2.1s-.1.1-.2.1l-.1.1c0 .1-.1.1-.1.2s0 .1-.1.2v.4c.1 0 .1.1.1.2zm-5.6 23.3c-.1 0-.1.1-.2.1l-.1.1c0 .1-.1.1-.1.2s0 .1-.1.2v.4c0 .1 0 .1.1.2 0 .1.1.1.1.2s.1.1.1.1.1.1.2.1.1.1.2.1.1 0 .2.1h.4c.1 0 .1 0 .2-.1.1 0 .1-.1.2-.1s.1-.1.2-.1l.1-.1c0-.1.1-.1.1-.2s0-.1.1-.2v-.2-.2c0-.1 0-.1-.1-.2 0-.1-.1-.1-.1-.2s-.1-.1-.1-.1-.1-.1-.2-.1-.1-.1-.2-.1-.1 0-.2-.1h-.4c-.1 0-.1 0-.2.1-.1 0-.1 0-.2.1z"/></svg><svg width="35" height="35" viewBox="-10 -10 35 35" id="close" x="721" xmlns="http://www.w3.org/2000/svg"><defs><path id="ana" d="M1376 281.2l-1.2-1.2-4.8 4.8-4.8-4.8-1.2 1.2 4.8 4.8-4.8 4.8 1.2 1.2 4.8-4.8 4.8 4.8 1.2-1.2-4.8-4.8z"/></defs><use fill="#555" xlink:href="#ana" transform="translate(-1362 -278)"/></svg><svg width="32" height="32" viewBox="-10 -10 32 32" id="close-gen" x="756" xmlns="http://www.w3.org/2000/svg"><defs><path id="aoa" d="M147 862.9l-.9-.9-3.6 3.6-3.6-3.6-.9.9 3.6 3.6-3.6 3.6.9.9 3.6-3.6 3.6 3.6.9-.9-3.6-3.6z"/></defs><use fill="#555" xlink:href="#aoa" transform="translate(-136 -860)"/></svg><svg width="46" height="46" viewBox="-10 -10 46 46" id="close-lg" x="788" xmlns="http://www.w3.org/2000/svg"><defs><path id="apa" d="M1867 38.3l-2.3-2.3-9.2 9.2-9.2-9.2-2.3 2.3 9.2 9.2-9.2 9.2 2.3 2.3 9.2-9.2 9.2 9.2 2.3-2.3-9.2-9.2z"/></defs><use xlink:href="#apa" transform="translate(-1842 -34)"/></svg><svg id="condicioner" viewBox="-10 -10 84 84" width="84" height="84" x="834" xmlns="http://www.w3.org/2000/svg"><style>.aqst0{fill:#00c1ff}</style><path class="aqst0" d="M55.9 13H8.1C7 13 6 13.9 6 15.1v20.8c0 .6.5 1 1.1 1H57c.6 0 1.1-.5 1.1-1V15.1C58 13.9 57 13 55.9 13zm0 21.9H8.1v-2.1h47.8v2.1zm-43.5-4.2v-2.1h39.3v2.1H12.4zm43.5 0h-2.1v-3.1c0-.6-.5-1-1.1-1H11.3c-.6 0-1.1.5-1.1 1v3.1H8.1V15.1h47.8v15.6zM32 24.5c2 0 3.7-1.6 3.7-3.6S34 17.3 32 17.3s-3.7 1.6-3.7 3.6c0 1.9 1.7 3.6 3.7 3.6zm0-5.3c.9 0 1.6.7 1.6 1.6 0 .9-.7 1.6-1.6 1.6-.9 0-1.6-.7-1.6-1.6 0-.9.7-1.6 1.6-1.6zm-20.2-.5h1.6v-2.1h-2.7c-.6 0-1.1.5-1.1 1v2.6h2.1v-1.5zm20.8 23.8c1.1-.8 2.5-1.9 2.5-4H33c0 1-.6 1.5-1.7 2.3-1.1.8-2.5 1.9-2.5 4s1.4 3.1 2.5 4c1.1.8 1.7 1.3 1.7 2.3h2.1c0-2.1-1.4-3.1-2.5-4-1.1-.8-1.7-1.3-1.7-2.3 0-1 .7-1.5 1.7-2.3zm-10.6 0c1.1-.8 2.5-1.9 2.5-4h-2.1c0 1-.6 1.5-1.7 2.3-1.1.8-2.5 1.9-2.5 4s1.4 3.1 2.5 4c1.1.8 1.7 1.3 1.7 2.3h2.1c0-2.1-1.4-3.1-2.5-4-1.1-.8-1.7-1.3-1.7-2.3 0-1 .6-1.5 1.7-2.3zm21.2 0c1.1-.8 2.5-1.9 2.5-4h-2.1c0 1-.6 1.5-1.7 2.3-1.1.8-2.5 1.9-2.5 4s1.4 3.1 2.5 4c1.1.8 1.7 1.3 1.7 2.3h2.1c0-2.1-1.4-3.1-2.5-4-1.1-.8-1.7-1.3-1.7-2.3.1-1 .7-1.5 1.7-2.3zm3.1-20.1h6.9c.6 0 1.1-.5 1.1-1v-3.6c0-.6-.5-1-1.1-1h-6.9c-.6 0-1.1.5-1.1 1v3.6c.1.5.5 1 1.1 1zm1.1-3.7h4.8v1.6h-4.8v-1.6z"/></svg><svg width="28" height="33" viewBox="-10 -10 28 33" id="crumbs-arr" x="918" xmlns="http://www.w3.org/2000/svg"><defs><path id="ara" d="M78.61 124.31l.78-.62 3.21 4 .79.62-.15.19.15.19-.78.62-.01-.01-3.21 4.01-.78-.62 3.35-4.19z"/></defs><use fill="#c6c8d1" xlink:href="#ara" transform="translate(-77 -122)"/></svg><svg id="dollar" viewBox="-10 -10 72 52" width="72" height="52" x="946" xmlns="http://www.w3.org/2000/svg"><style>.asst0{fill:#00c1ff}</style><path class="asst0" d="M1 10v22h50V10H1zm48 20H3V12h46v18zM3 5.9h46v2H3z"/><path class="asst0" d="M24.2 22.8l-1.7 1c.5 1.3 1.7 2.1 3.2 2.2v1.2h.9V26c1.6-.2 2.8-1.2 2.8-2.9 0-2-1.6-2.5-2.8-3v-2.3c.5.1.8.5 1.1 1l1.6-1c-.5-1.2-1.5-1.8-2.7-2v-1.2h-.9v1.2c-1.5.1-2.8 1.1-2.8 2.8 0 1.9 1.4 2.5 2.7 3V24c-.6-.1-1.1-.5-1.4-1.2zm2.5-.8c.6.3.9.5.9 1 0 .4-.3.8-.9 1v-2zm-1.8-3.4c0-.5.3-.8.9-1v2c-.7-.3-.9-.6-.9-1z"/></svg><svg id="door" viewBox="-10 -10 84 84" width="84" height="84" x="1018" xmlns="http://www.w3.org/2000/svg"><style>.atst0{fill:#00c1ff}</style><path class="atst0" d="M29.5 35c.5 0 1-.4 1-1 0-.5-.4-1-1-1h-3.4c-.5 0-1 .4-1 1 0 .5.4 1 1 1h3.4zm20-28.6H35.1V4.5c0-.3-.1-.6-.4-.8-.2-.2-.6-.2-.9-.2L14.2 8.8c-.4.1-.7.5-.7 1V13c0 .5.4 1 1 1 .5 0 1-.4 1-1v-2.4l17.6-4.7v52.6L15.5 55V16.2c0-.5-.4-1-1-1-.5 0-1 .4-1 1v39.4c0 .5.3.9.8 1l19.6 3.9h.2c.2 0 .4-.1.6-.2.2-.2.4-.5.4-.8v-1.9h9c.5 0 1-.4 1-1 0-.5-.4-1-1-1h-9v-2.8h9.7c.5 0 1-.4 1-1V12.1c0-.5-.4-1-1-1h-9.7V8.3h13.5v47.4h-1.4c-.5 0-1 .4-1 1 0 .5.4 1 1 1h2.4c.5 0 1-.4 1-1V7.3c-.1-.5-.5-.9-1.1-.9zm-14.4 6.7h8.7v37.8h-8.7V13.1z"/></svg><svg width="37" height="33" viewBox="-10 -10 37 33" id="down-arr" x="1102" xmlns="http://www.w3.org/2000/svg"><defs><path id="aua" d="M1840.01 900.23l1.3-1.23 6.19 6.49 6.2-6.5 1.29 1.24-7.42 7.77-.07-.07-.07.07z"/></defs><use fill="#00c1ff" xlink:href="#aua" transform="translate(-1839 -897)"/></svg><svg width="39" height="36" viewBox="-10 -10 39 36" id="envelope" x="1139" xmlns="http://www.w3.org/2000/svg"><defs><path id="ava" d="M70 678h16v13H70z"/><clipPath id="avb"><use fill="#fff" xlink:href="#ava"/></clipPath></defs><g transform="translate(-68 -676)"><use xlink:href="#ava"/><use fill="#fff" fill-opacity="0" stroke="#222" stroke-linecap="round" stroke-linejoin="round" stroke-miterlimit="50" stroke-width="4" clip-path="url(#avb)" xlink:href="#ava"/></g></svg><svg id="fan" viewBox="-10 -10 84 84" width="84" height="84" x="1178" xmlns="http://www.w3.org/2000/svg"><style>.awst0{fill:#00c1ff}</style><path class="awst0" d="M32 9.9c-10 0-18.1 8.2-18.1 18.2S22 46.3 32 46.3s18.1-8.2 18.1-18.2C50.1 18 42 9.9 32 9.9zm0 34.4c-8.9 0-16.2-7.3-16.2-16.2 0-8.9 7.3-16.2 16.2-16.2 8.9 0 16.2 7.3 16.2 16.2 0 8.9-7.3 16.2-16.2 16.2zm10.5-14.1c-.3-.2-1.1-.8-6-2.1 0-1.5-.7-2.8-1.9-3.6 1.9-4.7 1.9-5.8 1.9-6.1 0-2.5-2-4.5-4.4-4.5-2.4 0-4.4 2-4.4 4.5 0 .4 0 1.4 1.9 6.1-1.1.8-1.9 2.1-1.9 3.6-4.9 1.3-5.7 1.9-6 2.1-1 .7-1.6 1.7-1.8 2.9-.2 1.2.1 2.3.8 3.3.7 1 1.7 1.6 2.9 1.8.2 0 .5.1.7.1.9 0 1.8-.3 2.6-.9.3-.2 1.1-.8 3.8-5.1.4.1.9.2 1.4.2.5 0 1-.1 1.4-.2 2.7 4.3 3.6 4.9 3.8 5.1.8.6 1.7.9 2.6.9.2 0 .5 0 .7-.1 1.2-.2 2.2-.8 2.9-1.8.7-1 1-2.1.8-3.3-.2-1.2-.9-2.2-1.8-2.9zm-16.9 5.6c-.5.4-1.2.5-1.8.4-.7-.1-1.2-.5-1.6-1-.4-.5-.5-1.2-.4-1.8.1-.7.5-1.2 1-1.6.2-.1 1.2-.7 5.3-1.8.2.5.5.9.9 1.2-2.4 3.7-3.2 4.5-3.4 4.6zm6.4-5.2c-1.4 0-2.5-1.1-2.5-2.5s1.1-2.5 2.5-2.5 2.5 1.1 2.5 2.5c0 1.3-1.1 2.5-2.5 2.5zm.8-6.9c-.2 0-.5-.1-.8-.1-.3 0-.5 0-.8.1-1.6-4-1.7-5.1-1.7-5.4 0-1.4 1.1-2.5 2.5-2.5s2.5 1.1 2.5 2.5c0 .3-.2 1.4-1.7 5.4zm9.1 11.6c-.4.5-1 .9-1.6 1-.7.1-1.3-.1-1.8-.4-.2-.1-1-.9-3.3-4.5.4-.4.7-.8.9-1.2 4.2 1.1 5.1 1.6 5.3 1.8.5.4.9 1 1 1.6 0 .5-.2 1.1-.5 1.7zM51.1 5H12.9C10.8 5 9 6.8 9 8.9v42.2c0 2.2 1.8 3.9 3.9 3.9h32.3v1.5c0 1.4 1.1 2.5 2.4 2.5h1c1.3 0 2.4-1.1 2.4-2.5V55c2.1 0 3.9-1.8 3.9-3.9V8.9C55 6.8 53.2 5 51.1 5zm-1.9 51.5c0 .3-.2.5-.5.5h-1c-.3 0-.5-.2-.5-.5V55h2v1.5zm3.8-7.2h-1.9c-.5 0-1 .4-1 1s.4 1 1 1H53c0 1-.9 1.9-1.9 1.9H12.9c-1.1 0-2-.9-2-2h29.4c.5 0 1-.4 1-1s-.4-1-1-1H11V8.9c0-1.1.9-2 2-2h38.2c1.1 0 2 .9 2 2v40.4zm-8.8 0h-.9c-.5 0-1 .4-1 1s.4 1 1 1h.9c.5 0 1-.4 1-1s-.4-1-1-1zm4 0h-.9c-.5 0-1 .4-1 1s.4 1 1 1h.9c.5 0 1-.4 1-1s-.4-1-1-1z"/></svg><svg id="genplan" viewBox="-10 -10 39 43" width="39" height="43" x="1262" xmlns="http://www.w3.org/2000/svg"><style>.axst0{fill:#fff}</style><path class="axst0" d="M4 12c-.3 0-.5-.1-.7-.3l-3-3c-.4-.4-.4-1 0-1.4s1-.4 1.4 0l3 3c.4.4.4 1 0 1.4-.2.2-.4.3-.7.3z"/><path class="axst0" d="M1 12c-.3 0-.5-.1-.7-.3-.4-.4-.4-1 0-1.4l3-3c.4-.4 1-.4 1.4 0s.4 1 0 1.4l-3 3c-.2.2-.4.3-.7.3zM18 22c-.3 0-.5-.1-.7-.3l-3-3c-.4-.4-.4-1 0-1.4s1-.4 1.4 0l3 3c.4.4.4 1 0 1.4-.2.2-.4.3-.7.3z"/><path class="axst0" d="M15 22c-.3 0-.5-.1-.7-.3-.4-.4-.4-1 0-1.4l3-3c.4-.4 1-.4 1.4 0s.4 1 0 1.4l-3 3c-.2.2-.4.3-.7.3zM3 19c.6 0 1 .4 1 1s-.4 1-1 1-1-.4-1-1 .4-1 1-1m0-2c-1.7 0-3 1.3-3 3s1.3 3 3 3 3-1.3 3-3-1.3-3-3-3M16 2c.6 0 1 .4 1 1s-.4 1-1 1-1-.4-1-1 .4-1 1-1m0-2c-1.7 0-3 1.3-3 3s1.3 3 3 3 3-1.3 3-3-1.3-3-3-3"/><path class="axst0" d="M4.2 20l-.4-2 .2 1-.2-1c.2-.1 6-1.3 8.8-9.6l1.9.6c-3.2 9.5-10 10.9-10.3 11z"/><path class="axst0" d="M15.4 13.4c-.4 0-.7-.2-.9-.6l-1.5-3-3.1.7c-.5.1-1.1-.2-1.2-.8-.2-.4.2-1 .7-1.1l3.9-.9c.5-.1.9.1 1.1.5l1.8 3.7c.2.5 0 1.1-.4 1.3-.1.2-.3.2-.4.2z"/></svg><svg width="38" height="41" viewBox="-10 -10 38 41" id="hex-ico" x="1301" xmlns="http://www.w3.org/2000/svg"><defs><path id="aya" d="M1853.5 495.66l7.5 4.34v8.67l-7.5 4.33-7.5-4.33V500z"/><clipPath id="ayb"><use fill="#fff" xlink:href="#aya"/></clipPath></defs><g transform="translate(-1845 -494)"><use fill="#4fa9de" xlink:href="#aya"/><use fill="#fff" fill-opacity="0" stroke="#00c1ff" stroke-linecap="round" stroke-linejoin="round" stroke-miterlimit="50" stroke-width="4" clip-path="url(#ayb)" xlink:href="#aya"/></g></svg><svg width="38" height="41" viewBox="-10 -10 38 41" id="hexa-ico" x="1339" xmlns="http://www.w3.org/2000/svg"><defs><path id="aza" d="M1853.5 459l7.5 4.33V472l-7.5 4.34-7.5-4.34v-8.67z"/></defs><use fill="#00c1ff" xlink:href="#aza" transform="translate(-1845 -457)"/></svg><svg width="38" height="38" viewBox="-10 -10 38 38" id="house" x="1377" xmlns="http://www.w3.org/2000/svg"><defs><path id="baa" d="M61.92 126.39l-6.92-6.4-6.92 6.4c-.1.09-.1.24-.01.34.09.1.24.1.34 0l1.04-.95V134h3.86v-4.32c0-.93.76-1.68 1.69-1.68.93 0 1.69.75 1.69 1.68V134h3.86v-8.22l1.04.96a.24.24 0 0 0 .33-.35z"/></defs><use fill="#00c1ff" xlink:href="#baa" transform="translate(-46 -118)"/></svg><svg id="light" viewBox="-10 -10 84 84" width="84" height="84" x="1415" xmlns="http://www.w3.org/2000/svg"><style>.bbst0{fill:#00c1ff}</style><path class="bbst0" d="M48 22.8c0-4.3-1.7-8.3-4.8-11.3-3.1-3-7.2-4.6-11.6-4.5-8.7.2-15.7 7.4-15.6 16.1.1 3.8 1.5 7.5 4.1 10.3 1.7 1.9 3 4.2 3.8 6.6-.4.2-.7.6-.7 1.1 0 .6.5 1.2 1.2 1.2h.1c.2 1 .3 2 .3 3.1v2.7c0 3.6 2.6 6.5 6.1 7.1v.8c0 .6.5 1.2 1.2 1.2s1.2-.5 1.2-1.2v-1c3.5-.6 6.1-3.5 6.1-7.1v-2.7c0-1 .1-2.1.3-3.1h.1c.6 0 1.2-.5 1.2-1.2 0-.5-.3-.9-.7-1 .8-2.4 2.1-4.6 3.8-6.5 2.4-2.8 3.9-6.6 3.9-10.6zm-16 30c-2.7 0-4.9-2.2-4.9-4.9v-1.2H37v1.2c-.1 2.7-2.3 4.9-5 4.9zm5-8.4H27c0-.7-.1-1.5-.2-2.2h10.4c-.1.7-.2 1.4-.2 2.2zm-6.4-4.5v-2.4c0-.8.6-1.4 1.4-1.4.4 0 .7.1 1 .4.3.3.4.6.4 1v2.4h-2.8zm7.1 0h-1.9v-2.4c0-.9-.3-1.8-1-2.5l2.9-5.4c.3-.6.1-1.3-.5-1.6-.6-.3-1.3-.1-1.6.5l-2.9 5.4c-.3-.1-.5-.1-.8-.1-.3 0-.5 0-.8.1l-2.9-5.3c-.3-.6-1-.8-1.6-.5-.6.3-.8 1-.5 1.6l2.9 5.4c-.6.7-1 1.6-1 2.5V40h-1.9c-.8-2.9-2.4-5.7-4.5-8-2.2-2.4-3.4-5.5-3.5-8.8C18 15.8 24 9.6 31.4 9.4c3.7-.1 7.2 1.3 9.9 3.8 2.7 2.6 4.1 6 4.1 9.7 0 3.4-1.3 6.6-3.5 9.1-1.9 2.2-3.4 4.9-4.2 7.9zm.8-18.1c-.6 0-1.2.5-1.2 1.2 0 .5-.4 1-1 1-.5 0-1-.4-1-1s-.5-1.2-1.2-1.2c-.6 0-1.2.5-1.2 1.2 0 .5-.4 1-1 1-.5 0-1-.4-1-1s-.5-1.2-1.2-1.2c-.6 0-1.2.5-1.2 1.2 0 .5-.4 1-1 1-.5 0-1-.4-1-1s-.5-1.2-1.2-1.2c-.6 0-1.2.5-1.2 1.2 0 1.8 1.5 3.3 3.3 3.3.8 0 1.6-.3 2.2-.8.6.5 1.3.8 2.2.8.8 0 1.6-.3 2.2-.8.6.5 1.3.8 2.2.8 1.8 0 3.3-1.5 3.3-3.3.1-.7-.4-1.2-1-1.2z"/></svg><svg id="list" viewBox="-10 -10 60 60" width="60" height="60" x="1499" xmlns="http://www.w3.org/2000/svg"><style>.bcst0{fill:#00c1ff}</style><path class="bcst0" d="M26.7 11.7V8.5H8.5v19.4c0 2 1.6 3.6 3.6 3.6H28c2 0 3.6-1.6 3.6-3.6V11.7h-4.9zm-3.1 14.2H11.7v-2.4h11.9v2.4zm0-4.7H11.7v-2.4h11.9v2.4zm0-7.1v2.4H11.7v-4.8h11.9v2.4zm5.5 13.8c0 .7-.5 1.2-1.2 1.2s-1.2-.5-1.2-1.2V14.1h2.4v13.8z"/></svg><svg width="48" height="56" viewBox="-10 -10 48 56" id="loc" x="1559" xmlns="http://www.w3.org/2000/svg"><defs><path id="bda" d="M1662.77 1015.73a.79.79 0 0 1-.88.17l-5.29-2.35-5.28 2.35a.8.8 0 0 1-.64 0l-5.28-2.35-5.29 2.35a.79.79 0 0 1-1.03-1.06l4.21-8.91a.8.8 0 0 1 .4-.39l2.1-.94-3.63-6.08a9.97 9.97 0 0 1 1.78-11.57 9.89 9.89 0 0 1 6.92-2.95 9.89 9.89 0 0 1 7.13 2.86 9.87 9.87 0 0 1 1.85 11.66l-3.64 6.09 2.1.93c.18.07.32.2.4.39l4.22 8.91c.14.3.08.65-.15.9zm-12.45-6.63a.79.79 0 0 0 1.36 0l6.79-11.37c.6-1.18.9-2.45.9-3.79a8.3 8.3 0 0 0-2.5-5.95 8.32 8.32 0 0 0-5.99-2.41 8.41 8.41 0 0 0-7.35 12.15zm10.27 4.5l-3.19-6.73-2.01-.9-2.36 3.94a2.35 2.35 0 0 1-2.03 1.16c-.84 0-1.6-.44-2.03-1.16l-2.36-3.94-2.01.9-3.19 6.72 3.66-1.62c.2-.1.44-.1.65 0l5.28 2.35 5.28-2.35c.2-.1.44-.1.65 0zm-5.99-19.66a3.6 3.6 0 1 1-7.2 0 3.6 3.6 0 0 1 7.2 0zm-1.58 0a2.03 2.03 0 1 0-4.05.01 2.03 2.03 0 0 0 4.05 0z"/></defs><use fill="#00c1ff" xlink:href="#bda" transform="translate(-1637 -982)"/></svg><svg width="40" height="37" viewBox="-10 -10 40 37" id="menu" x="1607" xmlns="http://www.w3.org/2000/svg"><defs><path id="bea" d="M20 22h17v2H20zm0 6h17v2H20zm0 6h17v2H20z"/></defs><use fill="#218ccc" xlink:href="#bea" transform="translate(-18 -20)"/></svg><svg id="mouse" viewBox="-10 -10 45 61" width="45" height="61" x="1647" xmlns="http://www.w3.org/2000/svg"><style>.bfst0{fill:#00c1ff}</style><path class="bfst0" d="M10.7 12.7c0 1 .8 1.8 1.8 1.8s1.8-.8 1.8-1.8V9.3c0-1-.8-1.8-1.8-1.8s-1.8.8-1.8 1.8v3.4zM13.9 0v5c1.8.6 3.1 2.3 3.1 4.3v3.4c0 2-1.3 3.7-3.2 4.3v3.4h-2.7V17C9.3 16.5 8 14.8 8 12.7V9.3c0-2 1.3-3.7 3.2-4.3V0C2.3.6 0 6.7 0 10.9v19.2C0 34.4 2.5 41 12.5 41S25 34.4 25 30.1V10.9C25 6.7 22.7.6 13.9 0z"/></svg><svg width="30" height="34" viewBox="-10 -10 30 34" id="news-arr" x="1692" xmlns="http://www.w3.org/2000/svg"><defs><path id="bga" d="M757.59 759.76l1.41-1.42 4.24 4.25 1.42 1.41-1.42 1.41-4.24 4.25-1.41-1.42 4.24-4.24z"/></defs><use fill="#00c1ff" xlink:href="#bga" transform="translate(-756 -757)"/></svg><svg width="30" height="34" viewBox="-10 -10 30 34" id="next-arr" x="1722" xmlns="http://www.w3.org/2000/svg"><defs><path id="bha" d="M1370.59 887.76l1.41-1.42 4.24 4.25 1.42 1.41-1.42 1.41-4.24 4.25-1.41-1.42 4.24-4.24z"/></defs><use fill="#acb0bf" xlink:href="#bha" transform="translate(-1369 -885)"/></svg><svg width="33" height="37" viewBox="-10 -10 33 37" id="nextw-arr" x="1752" xmlns="http://www.w3.org/2000/svg"><defs><path id="bia" d="M1653.33 892l7.67 7.11-.38.39.38.39-7.67 7.1-1.33-1.34 6.63-6.15-6.63-6.15z"/></defs><use fill="#fff" xlink:href="#bia" transform="translate(-1650 -891)"/></svg><svg id="parking" viewBox="-10 -10 60 60" width="60" height="60" x="1785" xmlns="http://www.w3.org/2000/svg"><style>.bjst0{fill:#00c1ff}</style><path class="bjst0" d="M26.3 18H26l-1.1.3-1.2-2.9c-.3-.8-1.3-1.5-2.2-1.5H10.6c-.9 0-1.8.7-2.2 1.5l-1.2 2.9-1-.3h-.3c-.5 0-.9.4-.9 1v.7c0 .7.5 1.2 1.2 1.2h.1l-.2.5c-.3.8-.6 2-.6 2.8v5.7c0 .7.5 1.2 1.2 1.2h1.5c.7 0 1.2-.5 1.2-1.2v-1.4h13.2v1.4c0 .7.5 1.2 1.2 1.2h1.5c.7 0 1.2-.5 1.2-1.2v-5.7c0-.8-.2-2.1-.6-2.8l-.2-.5h.3c.7 0 1.2-.5 1.2-1.2V19c0-.6-.4-1-.9-1zM8.2 20.2l1.8-4.3c.2-.5.8-.9 1.3-.9H21c.5 0 1.1.4 1.3.9l1.8 4.3c.2.5-.1.9-.6.9H8.7c-.5-.1-.7-.5-.5-.9zm3.9 5.4c0 .3-.2.5-.5.5H8.3c-.3 0-.5-.2-.5-.5V24c0-.3.2-.5.5-.5h3.3c.3 0 .5.2.5.5v1.6zm12.2 0c0 .3-.2.5-.5.5h-3.3c-.3 0-.5-.2-.5-.5V24c0-.3.2-.5.5-.5h3.3c.3 0 .5.2.5.5v1.6zM33.5 9h-5.6c-.8 0-1.5.7-1.5 1.5v5.6c0 .8.7 1.5 1.5 1.5h2.2v12.7c0 .3.2.6.6.6.3 0 .6-.2.6-.6V17.6h2.2c.8 0 1.5-.7 1.5-1.5v-5.6c0-.8-.7-1.5-1.5-1.5zm-1.2 4.7c-.3.3-.8.4-1.4.4H30c-.1 0-.2.1-.2.2v1.4c0 .1-.1.3-.3.3H29c-.1 0-.3-.1-.3-.3V11c0-.2.1-.3.3-.3h1.5c1 0 1.4.2 1.7.4.3.3.5.7.5 1.3 0 .6-.1 1-.4 1.3zm-1.7-2.1H30c-.1 0-.2.1-.2.2V13c0 .1.1.2.2.2h.7c.1 0 .4-.1.6-.2.1-.1.2-.3.2-.6s-.1-.5-.2-.6c-.1-.1-.3-.2-.7-.2z"/></svg><svg width="40" height="40" viewBox="-10 -10 40 40" id="phone-blue" x="1845" xmlns="http://www.w3.org/2000/svg"><defs><path id="bka" d="M261.64 33.67l-2.47-2.49c-.5-.49-1.31-.47-1.82.04l-1.24 1.25-.25-.14a12.38 12.38 0 0 1-3-2.18c-1.13-1.14-1.73-2.22-2.16-3l-.14-.25.84-.84.41-.41a1.3 1.3 0 0 0 .03-1.83l-2.47-2.48c-.49-.5-1.3-.48-1.81.03l-.7.7.02.03a4.05 4.05 0 0 0-.83 2.05c-.32 2.71.91 5.2 4.26 8.57 4.64 4.66 8.37 4.3 8.54 4.29a4.16 4.16 0 0 0 2.03-.84l.02.02.7-.7c.51-.51.53-1.33.04-1.82z"/></defs><use fill="#218ccc" xlink:href="#bka" transform="translate(-244 -19)"/></svg><svg id="photo" viewBox="-10 -10 50 50" width="50" height="50" x="1885" xmlns="http://www.w3.org/2000/svg"><style>.blst0{fill:#fff}</style><path class="blst0" d="M24.5 8.2h-2.7l-2.6-3.8c-.2-.2-.5-.4-.7-.4h-7c-.3 0-.5.2-.7.4L8 8.2H5.5C3.6 8.2 2 9.7 2 11.6v11C2 24.4 3.6 26 5.5 26h19c1.9 0 3.5-1.6 3.5-3.4v-11c0-1.9-1.6-3.4-3.5-3.4zm0 16.1h-19c-1 0-1.8-.8-1.8-1.8v-11c0-.9.8-1.7 1.8-1.7h3c.3 0 .5-.2.7-.4l2.7-3.8H18l2.6 3.8c.2.2.4.4.7.4h3.2c1 0 1.8.8 1.8 1.7v11c0 1-.8 1.8-1.8 1.8zm-9.4-14.1c-3.4 0-6.1 2.7-6.1 5.9 0 3.3 2.7 5.9 6.1 5.9 3.3 0 6.1-2.7 6.1-5.9-.1-3.2-2.8-5.9-6.1-5.9zm0 10.2c-2.4 0-4.4-1.9-4.4-4.2 0-2.3 2-4.2 4.4-4.2 2.4 0 4.4 1.9 4.4 4.2-.1 2.3-2 4.2-4.4 4.2zm8.1-8.1c-.2 0-.3.1-.3.3 0 .2.1.3.3.3.2 0 .3-.1.3-.3 0-.1-.1-.3-.3-.3zm0-.8c-.7 0-1.2.5-1.2 1.2 0 .6.5 1.2 1.2 1.2s1.2-.5 1.2-1.2-.5-1.2-1.2-1.2zm0 1.7c-.3 0-.5-.2-.5-.5s.2-.5.5-.5.5.2.5.5c0 .2-.2.5-.5.5z"/></svg><svg width="31" height="35" viewBox="-10 -10 31 35" id="prev-arr" x="1935" xmlns="http://www.w3.org/2000/svg"><defs><path id="bma" d="M1376.6 833l1.4 1.37-4.2 4.13 4.2 4.13-1.4 1.37-5.6-5.5 1.4-1.38z"/></defs><use fill="#acb0bf" xlink:href="#bma" transform="translate(-1369 -831)"/></svg><svg width="31" height="35" viewBox="-10 -10 31 35" id="prevw-arr" x="1966" xmlns="http://www.w3.org/2000/svg"><defs><path id="bna" d="M448.6 1007l1.4 1.37-4.2 4.13 4.2 4.13-1.4 1.37-5.6-5.5 1.4-1.38z"/></defs><use fill="#fff" xlink:href="#bna" transform="translate(-441 -1005)"/></svg><svg width="41" height="41" viewBox="-10 -10 41 41" id="question" x="1997" xmlns="http://www.w3.org/2000/svg"><defs><path id="boa" d="M901 899.5a8.5 8.5 0 1 1-17 0 8.5 8.5 0 0 1 17 0zm-7.6 4a1 1 0 0 0-.28-.7.95.95 0 0 0-.7-.28.98.98 0 0 0-1 .98c0 .31.1.56.3.73.2.17.43.26.7.26a1 1 0 0 0 .69-.26c.2-.18.3-.42.3-.73zm2.4-6.36c0-.47-.14-.91-.4-1.32-.27-.4-.65-.72-1.13-.96a3.84 3.84 0 0 0-1.7-.35c-.68 0-1.28.14-1.8.42-.5.28-.9.64-1.16 1.07-.27.43-.4.85-.4 1.27 0 .2.08.39.25.56.17.17.37.26.62.26.42 0 .7-.25.85-.75.16-.47.35-.83.58-1.07.23-.25.58-.37 1.07-.37.41 0 .75.12 1.01.36a1.16 1.16 0 0 1 .26 1.4c-.08.15-.19.29-.31.41l-.61.56c-.32.28-.58.52-.77.73-.19.2-.34.44-.45.71-.12.27-.17.6-.17.96 0 .3.08.52.23.67a.8.8 0 0 0 .58.22c.44 0 .7-.23.78-.69l.11-.45a1.4 1.4 0 0 1 .3-.54l.36-.36c.54-.48.92-.82 1.13-1.03.2-.2.39-.45.54-.73.15-.28.23-.6.23-.98z"/></defs><use fill="#fff" xlink:href="#boa" transform="translate(-882 -889)"/></svg><svg width="39" height="39" viewBox="-10 -10 39 39" id="search-blue" x="2038" xmlns="http://www.w3.org/2000/svg"><defs><path id="bpa" d="M298.74 36.75a.88.88 0 0 1-.6.24.88.88 0 0 1-.64-.26l-3.97-3.99a6.78 6.78 0 0 1-3.83 1.17c-3.7 0-6.7-2.9-6.7-6.46s3-6.46 6.7-6.46c3.69 0 6.69 2.9 6.69 6.46a6.3 6.3 0 0 1-1.57 4.15l3.94 3.96c.34.34.32.87-.02 1.2zm-13.99-9.3a4.87 4.87 0 0 0 4.95 4.77 4.87 4.87 0 0 0 4.94-4.77 4.87 4.87 0 0 0-4.94-4.78 4.87 4.87 0 0 0-4.95 4.78z"/></defs><use fill="#218ccc" xlink:href="#bpa" transform="translate(-282 -19)"/></svg><svg width="48" height="47" viewBox="-10 -10 48 47" id="search-lg" x="2077" xmlns="http://www.w3.org/2000/svg"><defs><path id="bqa" d="M1365.62 353.63a1.3 1.3 0 0 1-1.85-.03l-5.97-6.24a9.9 9.9 0 0 1-5.76 1.83 10.08 10.08 0 0 1-10.04-10.1c0-5.56 4.5-10.09 10.04-10.09a10.08 10.08 0 0 1 7.7 16.58l5.91 6.2c.5.51.49 1.35-.03 1.85zm-21-14.54a7.45 7.45 0 0 0 7.42 7.46 7.45 7.45 0 0 0 0-14.92 7.45 7.45 0 0 0-7.42 7.46z"/></defs><use fill="#00c0ff" xlink:href="#bqa" transform="translate(-1340 -328)"/></svg><svg id="security" viewBox="-10 -10 84 84" width="84" height="84" x="2125" xmlns="http://www.w3.org/2000/svg"><style>.brst0{fill:#00c1ff}</style><path class="brst0" d="M19.2 43.2c-1.6 1.6-3 3.6-3.9 5.7-.2.5 0 1.2.5 1.4.1.1.3.1.4.1.4 0 .8-.2 1-.6.8-1.9 2-3.6 3.5-5 .4-.4.4-1.1 0-1.5-.4-.5-1.1-.6-1.5-.1zm-3.7 7.9c-.6-.1-1.1.2-1.3.8v.1c-.1.6.2 1.1.8 1.3h.3c.5 0 .9-.3 1-.8v-.1c.1-.6-.2-1.2-.8-1.3zm35.6-6.7c-2-3.2-4.7-5.9-8-7.8.4-1.1.8-2.6 1.1-4.8 0-.3.1-.7.2-1.2.3-1.5.6-3.5.8-5.3l.6-3.8c.8-1.1 3-4.4 2-6.5-.3-.7-1.1-1.5-3-1.5-2 0-3.5-1.4-5.3-3.1-2-1.9-4.2-4-7.6-4-3.4 0-5.6 2.1-7.6 4-1.7 1.7-3.3 3.1-5.3 3.1-1.9 0-2.7.8-3 1.5-1 2.1 1.2 5.4 2 6.5l.6 3.7c.2 1.8.5 3.8.8 5.2.1.5.2.9.2 1.2.4 2.2.7 3.7 1.1 4.8-3.2 1.9-6 4.5-8 7.8-2.2 3.6-3.4 7.8-3.4 12.1 0 .6.5 1.1 1 1.1h42.9c.6 0 1-.5 1-1.1.3-4.1-.9-8.3-3.1-11.9zM19.7 19.9h-.1c-1-1.5-1.8-3.3-1.5-3.9.1-.2.5-.3 1.1-.3 2.8 0 4.8-1.9 6.7-3.7 1.9-1.8 3.6-3.4 6.2-3.4s4.3 1.7 6.2 3.4c1.9 1.8 3.9 3.7 6.7 3.7.6 0 1 .1 1.1.3.3.6-.5 2.4-1.5 3.9h-.1l-.2-.1c-1.7-.5-4.4-1.3-8.8-1.5.6-.9 1-2.1 1-3.6V13c0-.4-.3-.8-.6-1l-3.3-1.4c-.3-.1-.5-.1-.8 0L28.5 12c-.4.2-.6.6-.6 1v1.7c0 1.5.4 2.7 1 3.6-4.4.3-7.1 1-8.8 1.5l-.4.1zm14.5-6.3v1c0 2.7-1.7 3.5-2.2 3.5-.6 0-2.2-.9-2.2-3.5v-1l2.2-.9 2.2.9zM20.6 23.9l-.3-2h.1c2-.6 5.4-1.6 11.5-1.6s9.5 1 11.5 1.6h.1l-.3 2c-2.2-.6-5.7-1.4-11.4-1.4-5.5-.1-9 .8-11.2 1.4zm17.8 14.8c-.4.3-.8.5-1.3.9-3.4 2-6.8 2-10.2 0-.5-.3-.9-.6-1.3-.9-2.3-1.5-2.9-1.9-3.8-7.3-.1-.3-.1-.8-.2-1.3-.2-.9-.4-2-.5-3.2 3.3 1.4 7.1 2.2 10.9 2.2 3.9 0 7.6-.7 10.9-2.2-.2 1.2-.4 2.3-.5 3.2-.1.5-.2.9-.2 1.2-.9 5.6-1.5 5.9-3.8 7.4zm.6 2.2l-1.7 4.4-2.8-2.4c1.2-.3 2.5-.8 3.7-1.5h.1c.2-.2.4-.3.7-.5zm-5.6 3.9l-.3.3c-.3.2-.7.4-1.1.4-.4 0-.8-.1-1.1-.4l-.3-.3 1.4-1.2 1.4 1.2zm-3.9-1.9l-2.8 2.4-1.7-4.4c.2.2.5.3.7.5h.1c1.2.7 2.5 1.2 3.7 1.5zM23 25.5c2.1-.5 4.9-.9 9-.9s7 .4 9 .9c-2.8 1-5.9 1.6-9 1.6-3.2-.1-6.2-.6-9-1.6zm4.3 29.9H11.6c.4-7.1 4.2-13.4 10.3-16.9l3.5 9.1c.1.3.4.6.7.6h.3c.2 0 .5-.1.7-.3l2-1.8.1.1-1.9 9.2zm2.2 0l1.5-7.9c.3.1.6.1 1 .1.3 0 .7 0 1-.1l1.5 7.9h-5zm7.2 0l-1.8-9.1.1-.1 2 1.8c.2.2.4.3.7.3h.3c.3-.1.6-.3.7-.6l3.5-9.1c6 3.5 9.9 9.9 10.2 16.9H36.7z"/></svg><svg id="serv" viewBox="-10 -10 60 60" width="60" height="60" x="2209" xmlns="http://www.w3.org/2000/svg"><style>.bsst0{fill:#00c1ff}</style><path class="bsst0" d="M18.8 21.4c.5-.3 1-.7 1.4-1.1l1.4.8 1.3-2.2-1.4-.8c.2-.5.3-1.1.3-1.7l1.6-.3-.5-2.5-1.6.3c-.2-.5-.5-1.1-.9-1.5l1.1-1.2-2-1.6-1.1 1.2c-.5-.3-1.1-.5-1.7-.6V8.5h-2.6v1.6c-.6.1-1.2.3-1.7.6l-1.1-1.2-2 1.6 1.1 1.2c-.4.5-.7 1-.9 1.5L8 13.6l-.5 2.5 1.6.3c0 .6.1 1.2.3 1.7l-1.4.8 1.3 2.2 1.4-.8c.4.4.9.8 1.4 1.1l-.6 1.6 2.4.9.6-1.5c.3 0 .6.1.9.1.3 0 .6 0 .9-.1l.6 1.5 2.4-.9-.5-1.6zm-3.4-1.9c-1.8 0-3.3-1.5-3.3-3.3 0-1.8 1.5-3.3 3.3-3.3 1.8 0 3.3 1.5 3.3 3.3 0 1.8-1.4 3.3-3.3 3.3zm14.5 3.9l-1.1.4c-.2-.4-.5-.7-.8-1l.6-1-1.6-1-.6 1-1.2-.3-.2-1.1-1.8.3.2 1.1c-.4.1-.8.3-1.1.6l-.9-.8-1.2 1.4.9.8c-.2.4-.4.7-.5 1.2h-1.2l-.1 1.8h1.2c.1.4.2.8.4 1.2l-.9.7 1.1 1.4.9-.7c.3.3.7.5 1.1.7l-.2 1.1 1.8.4.2-1.1h.6c.2 0 .4-.1.6-.1l.6 1 1.6-.9-.6-1 .9-.9 1.1.4.7-1.7-1.1-.4c.1-.4.1-.8 0-1.2l1.1-.4-.5-1.9zm-4.7 4.8c-1.3.2-2.5-.7-2.7-2-.2-1.3.7-2.5 2-2.6 1.3-.2 2.5.7 2.7 2 .2 1.3-.7 2.5-2 2.6zM32.5 17v-1.4h-.9l-.3-.9.7-.7-.9-1.1-.7.6c-.3-.2-.5-.4-.9-.5l.2-.9-1.4-.3-.3.9c-.3 0-.7 0-1 .1l-.4-.8-1.3.7.4.8c-.3.2-.5.5-.7.7l-.9-.3-.5 1.3.9.3c-.1.3-.1.7 0 1l-.9.3.5 1.4.9-.3c.2.3.4.6.6.8l-.5.8 1.3.8.5-.8c.3.1.6.2 1 .2l.1.9 1.5-.2-.1-.9c.2-.1.3-.1.5-.2s.3-.2.4-.3l.7.6 1-1.1-.7-.6c.2-.3.3-.6.4-.9h.8zm-3.5.8c-.9.5-2.1.1-2.5-.7-.5-.9-.1-2 .8-2.5s2.1-.1 2.5.8c.4.8.1 1.9-.8 2.4z"/></svg><svg width="33" height="39" viewBox="-10 -10 33 39" id="sort-arr" x="2269" xmlns="http://www.w3.org/2000/svg"><defs><path id="bta" d="M820 422l-5 6-5-6h4v-10h2v10z"/></defs><use fill="#00c1ff" xlink:href="#bta" transform="translate(-808 -410)"/></svg><svg id="star" viewBox="-10 -10 60 60" width="60" height="60" x="2302" xmlns="http://www.w3.org/2000/svg"><style>.bust0{fill:#00c1ff}</style><path class="bust0" d="M20 32c0-2.2 13.8-2.7 9.8-10.5s.3-10.1.3-10.1l-1.8-2.5C24 12 20 8 20 8s-4 4-8.3.9L10 11.4s4.3 2.3.2 10.1C6.2 29.3 20 29.8 20 32zm-1.6-15l1.5-4.5 1.5 4.5h4.9l-4 2.8 1.5 4.5-4-2.8-4 2.8 1.5-4.5-4-2.8h5.1z"/></svg><svg id="stroller" viewBox="-10 -10 84 84" width="84" height="84" x="2362" xmlns="http://www.w3.org/2000/svg"><style>.bvst0{fill:#00c1ff}</style><path class="bvst0" d="M22.7 28.5c-6.4 0-11.6 5.2-11.6 11.7 0 6.4 5.2 11.7 11.6 11.7s11.6-5.3 11.6-11.7c0-6.5-5.2-11.7-11.6-11.7zm0 21c-5.1 0-9.3-4.2-9.3-9.3 0-5.1 4.2-9.3 9.3-9.3 5.1 0 9.3 4.2 9.3 9.3 0 5.1-4.2 9.3-9.3 9.3zm0-12.8c-2 0-3.5 1.5-3.5 3.5s1.5 3.5 3.5 3.5 3.5-1.5 3.5-3.5-1.5-3.5-3.5-3.5zm0 4.6c-.7 0-1.2-.5-1.2-1.2s.5-1.2 1.2-1.2 1.2.5 1.2 1.2c0 .8-.5 1.2-1.2 1.2zM14.6 9.8h4.9c.6 0 1 .5 1.2 1.1l.9 8.4v2.2c0 .7.5 1.2 1.2 1.2s1.2-.5 1.2-1.2v-1.2h16.2c.7 0 1.2.5 1.2 1.2s-.5 1.2-1.2 1.2h-7c-.7 0-1.2.5-1.2 1.2s.5 1.2 1.2 1.2h7c2 0 3.5-1.5 3.5-3.5s-1.5-3.5-3.5-3.5H23.8l-.8-7.4c-.2-1.9-1.7-3.2-3.5-3.2h-4.9c-.7 0-1.2.5-1.2 1.2.1.7.5 1.1 1.2 1.1zm38.3 37.4c-.7 0-1.2.5-1.2 1.2s.5 1.2 1.2 1.2c1.3 0 2.3 1 2.3 2.3 0 1.3-1 2.3-2.3 2.3-1.3 0-2.3-1.1-2.3-2.3V35.5c0-2-1.5-3.5-3.5-3.5h-7c-.7 0-1.2.5-1.2 1.2s.5 1.2 1.2 1.2h7c.7 0 1.2.5 1.2 1.2V39H37.8c-.7 0-1.2.5-1.2 1.2 0 7.7-6.3 14-13.9 14-7.7 0-13.9-6.3-13.9-14s6.3-14 13.9-14c6.5 0 12.1 4.4 13.6 10.7.1.6.8 1 1.4.8.6-.1 1-.8.8-1.4-1.7-7.3-8.2-12.5-15.8-12.5-8.9 0-16.2 7.3-16.2 16.3s7.3 16.3 16.2 16.3c8.6 0 15.5-6.7 16.2-15.2h9.3v10.5c0 2.6 2.1 4.7 4.6 4.7 2.6 0 4.6-2.1 4.6-4.7.1-2.4-2-4.5-4.5-4.5z"/></svg><svg id="team" viewBox="-10 -10 60 60" width="60" height="60" x="2446" xmlns="http://www.w3.org/2000/svg"><style>.bwst0{fill:#00c1ff}</style><path class="bwst0" d="M28.3 14.1c1.2.3 2.5-.4 2.8-1.7.3-1.2-.4-2.5-1.7-2.8-1.2-.3-2.5.4-2.8 1.7-.3 1.2.5 2.5 1.7 2.8zm4 12.7h-3.1c-.2 0-.4.2-.4.4v2.9c0 .2.2.4.4.4h3.1c.2 0 .4-.2.4-.4v-2.9c-.1-.2-.2-.4-.4-.4zm.3-1.5c.3-.3.4-.7.4-1.2l-1-8c-.1-.8-.8-1.4-1.7-1.3-.8.1-1.4.8-1.3 1.7v.3l-1.5 2h-2.8c-.7 0-1.3.6-1.3 1.3 0 .3.1.5.2.8h-7.5c.2-.2.3-.5.3-.8 0-.7-.6-1.3-1.3-1.3h-2.8l-1.5-2v-.3c.1-.8-.5-1.6-1.3-1.7-.7-.2-1.4.4-1.5 1.2l-1 8c-.1.4.1.9.4 1.2.3.3.7.5 1.1.5h3.7V29c0 .8.7 1.5 1.5 1.5s1.5-.7 1.5-1.5v-4.7c0-.2 0-.4-.1-.5h2.5v6.4c0 .2.2.4.4.4h3.9c.2 0 .4-.2.4-.4v-6.4h2.6c-.1.2-.1.4-.1.5V29c0 .8.7 1.5 1.5 1.5s1.5-.7 1.5-1.5v-3.3h3.7c.4.1.8-.1 1.1-.4zm-19.5-2.6h-2.9l.3-2.4.2.3c.2.3.6.5 1 .5h1.6c-.2.3-.4.6-.4 1 .1.3.2.5.2.6zm13.6.1c.1-.2.1-.4.1-.5 0-.4-.1-.7-.4-1h1.8c.4 0 .8-.2 1-.5l.2-.3.3 2.4h-3zm-15-8.7c1.2-.3 2-1.6 1.7-2.8-.3-1.2-1.6-2-2.8-1.7-1.2.3-2 1.6-1.7 2.8.3 1.2 1.6 2 2.8 1.7zm-.9 12.7H7.7c-.2 0-.4.2-.4.4v2.9c0 .2.2.4.4.4h3.1c.2 0 .4-.2.4-.4v-2.9c0-.2-.2-.4-.4-.4z"/></svg><svg id="vega" viewBox="-10 -10 60 60" width="60" height="60" x="2506" xmlns="http://www.w3.org/2000/svg"><style>.bxst0{fill:#00c1ff}</style><path class="bxst0" d="M22.8 29.6h-1.7V13.1h7.3l-3.1 5.1c-.2.3-.1.6.2.8.1.1.2.1.3.1.2 0 .3-.1.4-.3l2.7-4.4 2.7 4.4c.2.3.5.3.7.2.2-.2.3-.5.2-.8l-3.1-5.1c.5 0 .8-.4.8-.9s-.4-.9-.8-.9h-6c-.3-.5-.8-.9-1.4-1.1-.1-1-.9-1.8-1.9-1.8-1 0-1.8.8-1.9 1.8-.6.2-1.1.6-1.4 1.1h-6c-.5 0-.8.4-.8.9s.4.9.8.9l-3.1 5.1c-.2.3-.1.6.2.8h.2c.2 0 .3-.1.4-.3l2.7-4.4 2.7 4.4c.2.3.5.3.7.2.2-.2.3-.5.2-.8L11.7 13H19v16.5h-1.7c-1 0-1.9.9-1.9 1.9h9.3c0-1-.9-1.8-1.9-1.8zm-7.7-10H7.3c-.2 0-.3.1-.3.3 0 2.4 1.9 4.4 4.2 4.4 2.3 0 4.2-2 4.2-4.4 0-.2-.2-.3-.3-.3zm17.6 0h-7.8c-.2 0-.3.1-.3.3 0 2.4 1.9 4.4 4.2 4.4 2.3 0 4.2-2 4.2-4.4 0-.2-.1-.3-.3-.3z"/></svg><svg id="video" viewBox="-10 -10 50 50" width="50" height="50" x="2566" xmlns="http://www.w3.org/2000/svg"><style>.byst0{fill:#fff}</style><path class="byst0" d="M21.3 6H1.9C.9 6 0 6.9 0 8v15c0 1.1.9 2 1.9 2h19.4c1.1 0 1.9-.9 1.9-2V8c0-1.1-.8-2-1.9-2zm0 15c0 1.1-.9 2-1.9 2H3.9C2.8 23 2 22.1 2 21V10c0-1.1.9-2 1.9-2h15.5c1.1 0 1.9.9 1.9 2v11zm8-12c-.4-.1-.9 0-1.1.4l-3 3.6v6l3 3.6c.2.3.5.4.8.4h.3c.4-.1.7-.5.7-1V10c0-.4-.3-.8-.7-1zM9.7 20l4.8-4-4.8-4v8z"/></svg></svg>